<?xml version="1.0" encoding="UTF-8"?>
<svg version="1.1" viewBox="0 0 2048 872" width="3487" height="1486" xmlns="http://www.w3.org/2000/svg">
<path transform="translate(0)" d="m0 0h2048v872h-2048z" fill="#FCFCFC"/>
<path transform="translate(678,143)" d="m0 0h18l10 5 4 5 3 7 1 5-1 14-5 16-11 23-12 18-10 13-11 12-64 64 2 19 8 61 1 5 8-7 13-8 4-2h6l6 4 20 20 1 2v8l-6 11-11 14-17 17-15 11 4 31 16-11 7-3 6 1 8 7 17 17 1 8-5 10-9 12-9 10-10 10-12 9v9l9 69v13l-4 11-8 10-18 18-4 2-7-1-4-5-18-39-16-35-18-39-16-35-18-39-13-29-11-12-7-8-12-14-7 6-65 65-14 11-8 6h-2l8 73 5 47-1 8-23 23-7 1-5-3-12-20-13-21-16-26-13-21-6-10-14 8-24 14-2 1h-6l-6-5-1-2v-7l17-29 6-11-5-2-23-14-47-29-23-14-3-4v-7l24-24 2-1 17 1 106 11 3-1 8-11 11-13 16-17 16-15 37-37-5-5-15-14-11-9-5-4-33-15-72-33-72-33-37-17-5-3-1-2v-7l7-8 18-18 12-6 5-1h11l77 10 3-1 9-12 17-17 17-12 6-3h8l10 9 14 14 2 4v6l-8 14-6 8 13 1 19 2 10-14 13-14 11-9 13-9 6-3h6l6 4 19 19 2 3v9l-9 14-7 9 11 2 69 9 5-1 71-71 17-13 15-10 21-11 17-6z" fill="#00C2CB"/>
<path transform="translate(664,165)" d="m0 0 4 2 12 11 10 11 1 3-12 23-12 17-11 13-12 13-60 60h-2l-1 3-8 7-162 162-4-4-8-11-12-13-13-11-8-6 6-7 218-218 5-4 20-20 17-13 18-11z" fill="#FDFDFD"/>
<path transform="translate(1298,245)" d="m0 0h64l16 4 9 6 8 9 4 9 2 9 1 13v11l-2 16-5 12-8 9-5 3h-2v2l6 2 10 9 6 12 3 14v36l-4 16-5 9-7 8-13 7-14 3h-63l-1-1z" fill="#000303"/>
<path transform="translate(1219,242)" d="m0 0h10l16 3 12 6 6 5 7 10 4 10 2 9v139l-4 15-6 10-9 9-12 6-9 2h-24l-13-4-9-5-9-9-6-12-3-12v-139l3-12 6-12 6-7 11-7 13-4z" fill="#000101"/>
<path transform="translate(1470,242)" d="m0 0h10l16 3 12 6 10 10 6 12 3 13v137l-3 13-6 12-10 10-10 5-11 3h-24l-11-3-10-5-10-10-6-12-3-12-1-130 2-15 4-11 6-10 8-7 12-6z" fill="#000101"/>
<path transform="translate(583,341)" d="m0 0 2 4 31 238 10 77v10l-4 8-12 12-3-4-19-41-17-37-9-20 2-4 17-17 1-7-7 1-17 17-8-16-12-26 2-4 22-22 1-7h-5l-23 23-3-3-18-39 2-4 28-28v-6l-6 1-28 28h-3l-7-8-12-14-7-8 2-4z" fill="#FDFDFD"/>
<path transform="translate(186,230)" d="m0 0h9l316 41 4 2-102 102-4-2-11-9-14-13-4-3 2-4 26-26 1-5-2-2-4 1-8 7-11 11-7 8-3 3-6-1-39-18 6-7 16-16 1-5-2-2-4 1-24 24-6-1-35-16-4-3 17-17 1-5-4-2-8 7-12 12-5 1-33-15-37-17-29-13v-3l12-12z" fill="#FDFDFD"/>
<path transform="translate(1049,245)" d="m0 0h63l16 4 10 6 6 7 5 10 3 16v33l-3 14-5 10-6 7-6 4h-2v2l6 2 9 9 5 12 2 10 1 57 2 12 1 4h-35l-3-9-1-55-2-13-4-7-9-4-19-1v89h-34z" fill="#000101"/>
<path transform="translate(1549,245)" d="m0 0h43l3 8 27 102 4 15 1-124 1-1h30v219h-35l-3-9-24-90-15-56-1 155h-31z" fill="#000101"/>
<path transform="translate(1681,245)" d="m0 0h35l1 176 3 8 5 4 3 1h11l6-3 3-3 2-6 1-177h33v178l-4 16-6 11-7 7-8 5-13 4-6 1h-14l-14-3-12-6-6-5-6-9-4-9-3-16z" fill="#000304"/>
<path transform="translate(923,245)" d="m0 0h34l1 173 3 10 4 4 5 2h10l8-4 3-6 1-5 1-174h32l1 1v169l-2 15-4 12-6 9-7 7-12 6-14 3h-14l-14-3-12-6-8-8-5-8-4-12-1-6z" fill="#000202"/>
<path transform="translate(1851,242)" d="m0 0 16 1 12 4 9 6 7 7 6 12 3 12 1 11v9l-1 1h-32l-1-15-3-10-5-4-3-1h-11l-6 3-4 8v18l4 11 6 9 9 10 17 16 12 12 9 13 6 13 3 16v16l-3 15-7 14-9 9-12 6-9 2-12 1-16-2-11-4-8-6-7-7-5-10-3-10-1-7v-23h33l1 23 3 8 6 4 10 1 9-3 4-6 1-4v-15l-3-10-6-10-12-13-15-14-12-12-9-13-6-13-3-14v-20l3-14 6-12 8-9 8-5 13-4z" fill="#000202"/>
<path transform="translate(809,245)" d="m0 0h94v31h-59v61h47v32h-47v63h59v32h-94z" fill="#000101"/>
<path transform="translate(1379,516)" d="m0 0h54l12 3 9 6 4 6 2 7v11l-4 11-8 7-1 2 5 2 4 5 2 7 2 28 4 4v3h-18l-2-15-1-17-3-6-4-3-3-1-40-1v43h-14z" fill="#009BA2"/>
<path transform="translate(1218,274)" d="m0 0h12l8 5 3 7 1 5v128l-3 9-5 5-5 2h-10l-8-4-4-8-1-6v-126l3-10 5-5z" fill="#FDFDFD"/>
<path transform="translate(1469,274)" d="m0 0h12l7 4 4 8 1 7v124l-2 9-6 7-5 2h-10l-8-4-4-7-1-6v-128l3-9 5-5z" fill="#FDFDFD"/>
<path transform="translate(340,471)" d="m0 0 4 1 12 9 13 12 9 11 7 11-11 10-16 11-53 31-22 13-15 9-1-2 13-22 29-49 15-25 11-14z" fill="#FDFDFD"/>
<path transform="translate(1262,516)" d="m0 0h16l4 10 16 44 17 47v1h-16l-9-26v-3l-41 1-10 28h-15l3-10 26-69z" fill="#009BA1"/>
<path transform="translate(1698,513)" d="m0 0 16 1 12 4 10 9 4 9 1 10h-13l-3-9-5-6-10-4h-15l-10 4-3 4-1 3v10l4 5 9 3 30 7 10 5 7 8 3 9v10l-4 11-5 6-14 7-11 2h-14l-13-3-10-6-7-9-3-8v-10h13l3 12 4 5 8 4 10 2 13-1 9-3 5-5 1-3v-9l-2-5-10-5-35-9-10-6-5-8-1-3v-12l4-11 7-8 10-5z" fill="#009BA1"/>
<path transform="translate(1080,516)" d="m0 0h14l1 1v41h52v-42h14v102h-14v-47h-52v47h-15z" fill="#009BA2"/>
<path transform="translate(190,487)" d="m0 0 41 4 68 7 1 2-17 29-13 22-5-2-15-9v-3l18-18 1-4-1-2h-5l-21 21-5-2-28-17-26-16-2-1 2-4z" fill="#FDFDFD"/>
<path transform="translate(355,556)" d="m0 0h2l5 43 6 57v10l-9 9-4-5-12-20-20-32 2-4 19-19 1-4-1-2h-5l-20 20-4-4-10-17 1-3 26-15z" fill="#FDFDFD"/>
<path transform="translate(968,513)" d="m0 0 14 1 11 4 9 6 6 7 4 9 1 7h-14l-4-9-5-6-9-4-5-1h-10l-10 3-8 6-6 10-3 12v18l3 13 5 9 6 5 10 4h14l10-4 5-5 4-6 4-12h14l-2 11-7 14-8 8-12 6-10 2h-11l-13-3-10-6-8-8-6-12-3-10-1-8v-14l3-15 7-14 10-10 10-5 7-2z" fill="#009BA1"/>
<path transform="translate(1333,366)" d="m0 0h24l6 3 5 6 2 7v38l-4 8-6 4h-27z" fill="#FDFDFD"/>
<path transform="translate(1521,516)" d="m0 0h83v13h-35v89h-14v-89h-34z" fill="#009BA2"/>
<path transform="translate(1084,276)" d="m0 0h16l9 2 5 4 3 8v39l-4 9-6 4-3 1h-21v-66z" fill="#FDFDFD"/>
<path transform="translate(1334,276)" d="m0 0h16l9 2 6 7 2 8v24l-3 9-4 5-8 3h-19v-57z" fill="#FDFDFD"/>
<path transform="translate(1393,528)" d="m0 0h38l9 3 4 5 1 3v12l-3 6-6 4-3 1h-40z" fill="#FDFDFD"/>
<path transform="translate(359,451)" d="m0 0 7 4 10 8 12 11 9 11 7 10-2 4-10 10-4-4-8-11-11-12-9-8-13-10 6-7z" fill="#FDFDFD"/>
<path transform="translate(621,413)" d="m0 0 4 2 25 25-6 8-13 13-12 9-2-3-1-15 10-10 1-5-1-1h-5l-7 6-2-14v-7l7-7z" fill="#FDFDFD"/>
<path transform="translate(415,207)" d="m0 0 4 2 25 25-6 8-4 3-19-3 6-7-1-5h-5l-10 10h-9l-8-1v-4l9-11 15-15z" fill="#FDFDFD"/>
<path transform="translate(631,517)" d="m0 0 7 6 21 21-2 4-9 10-12 11-5 3-2-13v-6l7-7v-5l-5-1-4 2-2-14v-6z" fill="#FDFDFD"/>
<path transform="translate(310,198)" d="m0 0 4 1 25 25-2 5-2 2-16-1-5-1 2-3v-5l-4-1-8 7-16-1-3-2 9-11 13-13z" fill="#FDFDFD"/>
<path transform="translate(1269,532)" d="m0 0 2 3 13 39v2h-30l1-6z" fill="#FDFDFD"/>
<path transform="translate(647,506)" d="m0 0 4 1 19 19-1 5-4 6-4-2-22-22 1-3z" fill="#FDFDFD"/>
<path transform="translate(637,402)" d="m0 0 5 1 18 18 1 3-6 9-7-6-19-19 3-3z" fill="#FDFDFD"/>
<path transform="translate(431,196)" d="m0 0 4 1 20 20-5 10-4-2-23-23 5-4z" fill="#FDFDFD"/>
<path transform="translate(326,187)" d="m0 0 5 1 19 19-1 5-4 6-7-6-19-19 5-5z" fill="#FDFDFD"/>
<path transform="translate(684,159)" d="m0 0 10 1 2 2 1 9-2 10h-2l-7-8-11-11 3-2z" fill="#FDFDFD"/>
</svg>
